# Blender v3.1.2 OBJ File: ''
# www.blender.org
mtllib TestObject2.mtl
o Cube
v 1.000000 -1.000000 -1.000000
v 1.000000 1.000000 1.000000
v 1.000000 -1.000000 1.000000
v -1.000000 1.000000 -1.000000
v -1.000000 -1.000000 -1.000000
v -1.000000 1.000000 1.000000
v -1.000000 -1.000000 1.000000
vt 0.375000 0.250000
vt 0.625000 0.250000
vt 0.375000 0.500000
vt 0.375000 0.750000
vt 0.625000 0.750000
vt 0.625000 1.000000
vt 0.375000 1.000000
vt 0.375000 0.000000
vt 0.625000 0.000000
vt 0.125000 0.500000
vt 0.125000 0.750000
vn 0.0000 0.0000 -1.0000
vn 0.0000 0.0000 1.0000
vn -1.0000 0.0000 0.0000
vn 0.0000 -1.0000 0.0000
vn 1.0000 0.0000 0.0000
vn 0.0000 0.7071 -0.7071
vn 0.7071 0.7071 0.0000
usemtl Material
s off
f 5/1/1 4/2/1 1/3/1
f 3/4/2 2/5/2 6/6/2 7/7/2
f 7/8/3 6/9/3 4/2/3 5/1/3
f 5/10/4 1/3/4 3/4/4 7/11/4
f 3/4/5 1/3/5 2/5/5
f 6/6/6 2/5/6 1/3/6
f 1/3/7 4/2/7 6/9/7
