# Blender v3.1.2 OBJ File: ''
# www.blender.org
mtllib TestObject.mtl
o Cube
v 1.055797 0.889826 -2.117396
v 1.044003 -1.357872 -1.237032
v 1.311870 2.235711 0.721578
v 1.426925 -1.157865 1.277725
v -1.779128 1.484454 -0.743043
v -1.328092 -1.170444 -0.998182
v -1.401902 2.684277 1.700013
v -1.181791 -0.490631 2.104984
v -1.394040 -1.194792 -0.051757
v -1.348678 -1.001377 0.937043
v -1.269535 -0.666321 1.641204
v 1.210316 1.291987 -1.755077
v 1.372821 1.707478 -1.177250
v 1.500710 2.044900 -0.300123
v -1.459273 2.646853 1.237663
v -1.572288 2.412561 0.668946
v -1.698164 1.977393 0.029837
v 1.579152 -1.227040 0.530773
v 1.459007 -1.339420 -0.165933
v 1.251723 -1.387359 -0.739923
v 0.420800 -1.379121 -1.296981
v -0.215488 -1.346868 -1.255836
v -0.817090 -1.267738 -1.118273
v 0.390247 2.626740 1.053947
v -0.273549 2.817687 1.481085
v -0.856653 2.797649 1.696390
v -0.582940 -0.428780 2.276845
v 0.085077 -0.631283 2.164826
v 0.823920 -0.965405 1.734757
v -1.140193 1.586923 -1.334391
v -0.474756 1.516080 -1.929013
v 0.229479 1.246179 -2.212902
v 0.667702 -1.439028 -0.706851
v -0.032534 -1.420702 -0.517190
v -0.767586 -1.327078 -0.219676
v 0.954520 -1.362475 0.014022
v 0.267917 -1.352429 0.466662
v -0.576933 -1.172044 0.870694
v 1.122370 -1.140280 0.905969
v 0.372196 -0.958799 1.442032
v -0.548980 -0.719880 1.706691
v -1.040610 2.069148 -0.512401
v -0.335597 2.000701 -1.278921
v 0.373068 1.721639 -1.741291
v -0.994784 2.496019 0.346436
v -0.229881 2.399150 -0.343497
v 0.539323 2.140759 -1.026237
v -0.902672 2.765063 1.105875
v -0.300220 2.698955 0.653975
v 0.614042 2.451581 0.025360
v 1.029705 0.374520 -2.147682
v 0.998490 -0.178811 -2.010697
v 0.999894 -0.770670 -1.685474
v -1.318776 0.598431 2.331410
v -1.363491 1.498089 2.276651
v -1.390239 2.144547 2.028016
v 1.407669 1.630313 1.223448
v 1.517321 0.818629 1.461785
v 1.595696 -0.173722 1.388623
v -1.969761 0.859340 -0.808742
v -1.951558 0.198998 -0.963484
v -1.705541 -0.488995 -1.047987
v 1.253453 0.724955 -1.817755
v 1.258232 0.086481 -1.710031
v 1.245713 -0.637351 -1.329445
v 1.507070 1.132185 -1.174397
v 1.565241 0.432865 -1.123098
v 1.550211 -0.427597 -0.772838
v 1.747719 1.487922 -0.000417
v 1.907481 0.752826 0.180108
v 1.842108 -0.210326 0.260230
v -1.491956 2.107633 1.619983
v -1.508769 1.416213 1.902606
v -1.478813 0.462799 1.952025
v -1.717182 1.794019 1.103524
v -1.800515 0.995566 1.398594
v -1.674063 -0.005256 1.363991
v -1.967655 1.265894 0.365929
v -2.109763 0.430743 0.485733
v -1.884144 -0.414894 0.252068
v -1.335949 0.976344 -1.479775
v -1.373649 0.299695 -1.604362
v -1.190883 -0.474436 -1.463885
v -0.623805 0.925151 -2.121040
v -0.670466 0.274805 -2.182427
v -0.534172 -0.508768 -1.850827
v 0.170826 0.682189 -2.335217
v 0.158860 0.064554 -2.262374
v 0.239050 -0.638676 -1.890594
v 0.387719 2.105159 1.676306
v 0.447207 1.333971 2.054579
v 0.652522 0.209965 2.066980
v -0.259956 2.371896 2.034796
v -0.236364 1.725400 2.391161
v -0.150666 0.676191 2.446831
v -0.830626 2.339221 2.137046
v -0.797694 1.733867 2.431039
v -0.754259 0.795176 2.498777
vt 0.812500 0.687500
vt 0.875000 0.687500
vt 0.875000 0.750000
vt 0.812500 0.750000
vt 0.562500 0.937500
vt 0.625000 0.937500
vt 0.625000 1.000000
vt 0.562500 1.000000
vt 0.562500 0.187500
vt 0.625000 0.187500
vt 0.625000 0.250000
vt 0.562500 0.250000
vt 0.312500 0.687500
vt 0.375000 0.687500
vt 0.375000 0.750000
vt 0.312500 0.750000
vt 0.562500 0.687500
vt 0.625000 0.687500
vt 0.625000 0.750000
vt 0.562500 0.750000
vt 0.562500 0.437500
vt 0.625000 0.437500
vt 0.625000 0.500000
vt 0.562500 0.500000
vt 0.625000 0.562500
vt 0.562500 0.562500
vt 0.625000 0.625000
vt 0.562500 0.625000
vt 0.312500 0.500000
vt 0.375000 0.500000
vt 0.375000 0.562500
vt 0.312500 0.562500
vt 0.375000 0.625000
vt 0.312500 0.625000
vt 0.562500 0.000000
vt 0.625000 0.000000
vt 0.625000 0.062500
vt 0.562500 0.062500
vt 0.625000 0.125000
vt 0.562500 0.125000
vt 0.812500 0.500000
vt 0.875000 0.500000
vt 0.875000 0.562500
vt 0.812500 0.562500
vt 0.875000 0.625000
vt 0.812500 0.625000
vt 0.687500 0.625000
vt 0.687500 0.687500
vt 0.750000 0.625000
vt 0.750000 0.687500
vt 0.687500 0.562500
vt 0.750000 0.562500
vt 0.687500 0.500000
vt 0.750000 0.500000
vt 0.125000 0.625000
vt 0.187500 0.625000
vt 0.187500 0.687500
vt 0.125000 0.687500
vt 0.250000 0.625000
vt 0.250000 0.687500
vt 0.125000 0.562500
vt 0.187500 0.562500
vt 0.250000 0.562500
vt 0.125000 0.500000
vt 0.187500 0.500000
vt 0.250000 0.500000
vt 0.625000 0.312500
vt 0.562500 0.312500
vt 0.625000 0.375000
vt 0.562500 0.375000
vt 0.187500 0.750000
vt 0.125000 0.750000
vt 0.250000 0.750000
vt 0.625000 0.812500
vt 0.562500 0.812500
vt 0.625000 0.875000
vt 0.562500 0.875000
vt 0.687500 0.750000
vt 0.750000 0.750000
vt 0.375000 0.875000
vt 0.437500 0.875000
vt 0.437500 0.937500
vt 0.375000 0.937500
vt 0.500000 0.875000
vt 0.500000 0.937500
vt 0.375000 0.812500
vt 0.437500 0.812500
vt 0.500000 0.812500
vt 0.437500 0.750000
vt 0.500000 0.750000
vt 0.375000 0.375000
vt 0.437500 0.375000
vt 0.437500 0.437500
vt 0.375000 0.437500
vt 0.500000 0.375000
vt 0.500000 0.437500
vt 0.375000 0.312500
vt 0.437500 0.312500
vt 0.500000 0.312500
vt 0.375000 0.250000
vt 0.437500 0.250000
vt 0.500000 0.250000
vt 0.375000 0.125000
vt 0.437500 0.125000
vt 0.437500 0.187500
vt 0.375000 0.187500
vt 0.500000 0.125000
vt 0.500000 0.187500
vt 0.375000 0.062500
vt 0.437500 0.062500
vt 0.500000 0.062500
vt 0.375000 0.000000
vt 0.437500 0.000000
vt 0.500000 0.000000
vt 0.437500 0.625000
vt 0.437500 0.687500
vt 0.500000 0.625000
vt 0.500000 0.687500
vt 0.437500 0.562500
vt 0.500000 0.562500
vt 0.437500 0.500000
vt 0.500000 0.500000
vt 0.437500 1.000000
vt 0.375000 1.000000
vt 0.500000 1.000000
vn -0.2107 0.9766 -0.0442
vn -0.2375 0.5870 0.7739
vn -0.9468 0.3056 -0.1007
vn -0.1790 -0.9787 0.1004
vn 0.9120 0.3784 0.1586
vn 0.2105 0.1206 -0.9701
vn 0.8478 0.0586 -0.5270
vn 0.8961 0.1608 -0.4137
vn 0.9355 0.2477 -0.2518
vn 0.0623 -0.9922 -0.1076
vn 0.0809 -0.9946 0.0647
vn 0.0491 -0.9791 0.1973
vn -0.9773 0.1294 0.1676
vn -0.9510 0.2618 0.1643
vn -0.9477 0.3169 0.0373
vn -0.4804 0.7714 -0.4173
vn -0.4087 0.8105 -0.4196
vn -0.2827 0.9106 -0.3014
vn 0.3382 0.8807 -0.3315
vn 0.0652 0.9563 -0.2851
vn -0.1410 0.9424 -0.3034
vn 0.3321 0.7518 -0.5697
vn -0.0160 0.8970 -0.4417
vn -0.2791 0.8811 -0.3817
vn 0.3172 0.5944 -0.7390
vn -0.0429 0.7643 -0.6434
vn -0.3796 0.8003 -0.4641
vn -0.1318 -0.8789 0.4584
vn -0.0533 -0.9033 0.4257
vn 0.0809 -0.9500 0.3015
vn -0.1789 -0.9668 0.1823
vn -0.1120 -0.9848 0.1325
vn 0.0162 -0.9967 0.0791
vn -0.2089 -0.9769 -0.0462
vn -0.1470 -0.9874 -0.0594
vn -0.0521 -0.9952 -0.0833
vn -0.6934 0.3265 -0.6423
vn -0.6016 0.3713 -0.7073
vn -0.2102 0.2918 -0.9331
vn -0.0687 -0.9079 0.4135
vn -0.1581 -0.9054 0.3939
vn -0.1721 -0.9544 0.2441
vn 0.5157 0.6261 0.5848
vn 0.5444 0.6504 0.5298
vn 0.1487 0.7346 0.6621
vn 0.3746 0.9229 -0.0893
vn 0.1802 0.9743 -0.1352
vn -0.0205 0.9943 -0.1051
vn 0.0803 -0.1822 0.9800
vn 0.0857 0.0673 0.9940
vn 0.1007 0.4622 0.8810
vn 0.3928 -0.1596 0.9057
vn 0.4744 0.0910 0.8756
vn 0.5723 0.4035 0.7139
vn 0.5419 -0.1683 0.8234
vn 0.5490 0.0496 0.8344
vn 0.5472 0.3539 0.7585
vn -0.1159 -0.6207 -0.7755
vn -0.1596 -0.4411 -0.8832
vn -0.1784 -0.0006 -0.9840
vn -0.3583 -0.5758 -0.7349
vn -0.5534 -0.3433 -0.7588
vn -0.6411 0.1463 -0.7533
vn -0.4442 -0.4361 -0.7826
vn -0.6656 -0.2225 -0.7124
vn -0.7386 0.1482 -0.6576
vn -0.8404 -0.4852 0.2415
vn -0.9128 -0.2237 0.3418
vn -0.9615 0.1845 0.2039
vn -0.8473 -0.3514 0.3983
vn -0.8895 -0.0678 0.4518
vn -0.9242 0.1905 0.3311
vn -0.9086 -0.2268 0.3507
vn -0.9251 -0.0159 0.3795
vn -0.9527 0.1060 0.2848
vn 0.9504 -0.2554 -0.1777
vn 0.9659 -0.0991 -0.2394
vn 0.9613 0.1049 -0.2548
vn 0.8950 -0.2900 -0.3390
vn 0.9012 -0.1944 -0.3874
vn 0.9114 -0.0060 -0.4116
vn 0.8583 -0.2942 -0.4205
vn 0.8351 -0.2655 -0.4818
vn 0.8429 -0.1261 -0.5231
vn 0.1032 -0.6032 -0.7909
vn 0.1414 -0.4622 -0.8754
vn 0.1911 -0.1800 -0.9649
vn 0.9582 -0.1896 0.2144
vn 0.9669 0.0073 0.2551
vn 0.9388 0.2324 0.2543
vn -0.8632 -0.4980 -0.0829
vn -0.9571 -0.2764 -0.0865
vn -0.9933 0.0842 -0.0796
vn -0.2292 -0.2146 0.9494
vn -0.2910 0.0497 0.9554
vn -0.3410 0.3601 0.8683
usemtl Material
s off
f 48/1/1 15/2/1 7/3/1 26/4/1
f 96/5/2 26/6/2 7/7/2 56/8/2
f 78/9/3 17/10/3 5/11/3 60/12/3
f 39/13/4 18/14/4 4/15/4 29/16/4
f 69/17/5 14/18/5 3/19/5 57/20/5
f 87/21/6 32/22/6 1/23/6 51/24/6
f 51/24/7 1/23/7 12/25/7 63/26/7
f 63/26/8 12/25/8 13/27/8 66/28/8
f 66/28/9 13/27/9 14/18/9 69/17/9
f 21/29/10 2/30/10 20/31/10 33/32/10
f 33/32/11 20/31/11 19/33/11 36/34/11
f 36/34/12 19/33/12 18/14/12 39/13/12
f 56/35/13 7/36/13 15/37/13 72/38/13
f 72/38/14 15/37/14 16/39/14 75/40/14
f 75/40/15 16/39/15 17/10/15 78/9/15
f 30/41/16 5/42/16 17/43/16 42/44/16
f 42/44/17 17/43/17 16/45/17 45/46/17
f 45/46/18 16/45/18 15/2/18 48/1/18
f 13/27/19 47/47/19 50/48/19 14/18/19
f 47/47/20 46/49/20 49/50/20 50/48/20
f 46/49/21 45/46/21 48/1/21 49/50/21
f 12/25/22 44/51/22 47/47/22 13/27/22
f 44/51/23 43/52/23 46/49/23 47/47/23
f 43/52/24 42/44/24 45/46/24 46/49/24
f 1/23/25 32/53/25 44/51/25 12/25/25
f 32/53/26 31/54/26 43/52/26 44/51/26
f 31/54/27 30/41/27 42/44/27 43/52/27
f 10/55/28 38/56/28 41/57/28 11/58/28
f 38/56/29 37/59/29 40/60/29 41/57/29
f 37/59/30 36/34/30 39/13/30 40/60/30
f 9/61/31 35/62/31 38/56/31 10/55/31
f 35/62/32 34/63/32 37/59/32 38/56/32
f 34/63/33 33/32/33 36/34/33 37/59/33
f 6/64/34 23/65/34 35/62/34 9/61/34
f 23/65/35 22/66/35 34/63/35 35/62/35
f 22/66/36 21/29/36 33/32/36 34/63/36
f 60/12/37 5/11/37 30/67/37 81/68/37
f 81/68/38 30/67/38 31/69/38 84/70/38
f 84/70/39 31/69/39 32/22/39 87/21/39
f 11/58/40 41/57/40 27/71/40 8/72/40
f 41/57/41 40/60/41 28/73/41 27/71/41
f 40/60/42 39/13/42 29/16/42 28/73/42
f 57/20/43 3/19/43 24/74/43 90/75/43
f 90/75/44 24/74/44 25/76/44 93/77/44
f 93/77/45 25/76/45 26/6/45 96/5/45
f 14/18/46 50/48/46 24/78/46 3/19/46
f 50/48/47 49/50/47 25/79/47 24/78/47
f 49/50/48 48/1/48 26/4/48 25/79/48
f 28/80/49 95/81/49 98/82/49 27/83/49
f 95/81/50 94/84/50 97/85/50 98/82/50
f 94/84/51 93/77/51 96/5/51 97/85/51
f 29/86/52 92/87/52 95/81/52 28/80/52
f 92/87/53 91/88/53 94/84/53 95/81/53
f 91/88/54 90/75/54 93/77/54 94/84/54
f 4/15/55 59/89/55 92/87/55 29/86/55
f 59/89/56 58/90/56 91/88/56 92/87/56
f 58/90/57 57/20/57 90/75/57 91/88/57
f 22/91/58 86/92/58 89/93/58 21/94/58
f 86/92/59 85/95/59 88/96/59 89/93/59
f 85/95/60 84/70/60 87/21/60 88/96/60
f 23/97/61 83/98/61 86/92/61 22/91/61
f 83/98/62 82/99/62 85/95/62 86/92/62
f 82/99/63 81/68/63 84/70/63 85/95/63
f 6/100/64 62/101/64 83/98/64 23/97/64
f 62/101/65 61/102/65 82/99/65 83/98/65
f 61/102/66 60/12/66 81/68/66 82/99/66
f 10/103/67 77/104/67 80/105/67 9/106/67
f 77/104/68 76/107/68 79/108/68 80/105/68
f 76/107/69 75/40/69 78/9/69 79/108/69
f 11/109/70 74/110/70 77/104/70 10/103/70
f 74/110/71 73/111/71 76/107/71 77/104/71
f 73/111/72 72/38/72 75/40/72 76/107/72
f 8/112/73 54/113/73 74/110/73 11/109/73
f 54/113/74 55/114/74 73/111/74 74/110/74
f 55/114/75 56/35/75 72/38/75 73/111/75
f 19/33/76 68/115/76 71/116/76 18/14/76
f 68/115/77 67/117/77 70/118/77 71/116/77
f 67/117/78 66/28/78 69/17/78 70/118/78
f 20/31/79 65/119/79 68/115/79 19/33/79
f 65/119/80 64/120/80 67/117/80 68/115/80
f 64/120/81 63/26/81 66/28/81 67/117/81
f 2/30/82 53/121/82 65/119/82 20/31/82
f 53/121/83 52/122/83 64/120/83 65/119/83
f 52/122/84 51/24/84 63/26/84 64/120/84
f 21/94/85 89/93/85 53/121/85 2/30/85
f 89/93/86 88/96/86 52/122/86 53/121/86
f 88/96/87 87/21/87 51/24/87 52/122/87
f 18/14/88 71/116/88 59/89/88 4/15/88
f 71/116/89 70/118/89 58/90/89 59/89/89
f 70/118/90 69/17/90 57/20/90 58/90/90
f 9/106/91 80/105/91 62/101/91 6/100/91
f 80/105/92 79/108/92 61/102/92 62/101/92
f 79/108/93 78/9/93 60/12/93 61/102/93
f 27/83/94 98/82/94 54/123/94 8/124/94
f 98/82/95 97/85/95 55/125/95 54/123/95
f 97/85/96 96/5/96 56/8/96 55/125/96
